<svg width="16" height="12" viewBox="0 0 16 12" fill="none" xmlns="http://www.w3.org/2000/svg">
<path fill-rule="evenodd" clip-rule="evenodd" d="M4.83162 0.227664C4.95821 0.082987 5.14109 0 5.33333 0H14C14.5304 0 15.0391 0.210714 15.4142 0.585786C15.7893 0.960859 16 1.46957 16 2V10C16 10.5304 15.7893 11.0391 15.4142 11.4142C15.0391 11.7893 14.5304 12 14 12H5.33333C5.14109 12 4.95821 11.917 4.83162 11.7723L0.164949 6.439C-0.054983 6.18765 -0.054983 5.81235 0.164949 5.561L4.83162 0.227664ZM5.63585 1.33333L1.55251 6L5.63585 10.6667H14C14.1768 10.6667 14.3464 10.5964 14.4714 10.4714C14.5964 10.3464 14.6667 10.1768 14.6667 10V2C14.6667 1.82319 14.5964 1.65362 14.4714 1.5286C14.3464 1.40357 14.1768 1.33333 14 1.33333H5.63585ZM7.5286 3.5286C7.78895 3.26825 8.21106 3.26825 8.47141 3.5286L10 5.05719L11.5286 3.5286C11.7889 3.26825 12.2111 3.26825 12.4714 3.5286C12.7318 3.78894 12.7318 4.21106 12.4714 4.4714L10.9428 6L12.4714 7.5286C12.7318 7.78895 12.7318 8.21106 12.4714 8.47141C12.2111 8.73176 11.7889 8.73176 11.5286 8.47141L10 6.94281L8.47141 8.47141C8.21106 8.73176 7.78895 8.73176 7.5286 8.47141C7.26825 8.21106 7.26825 7.78895 7.5286 7.5286L9.05719 6L7.5286 4.4714C7.26825 4.21106 7.26825 3.78894 7.5286 3.5286Z" fill="black"/>
</svg>
